<svg xmlns="http://www.w3.org/2000/svg" xmlns:xlink="http://www.w3.org/1999/xlink" version="1.1" width="256" height="256" viewBox="0 0 256 256" xml:space="preserve">
<desc>Created with Fabric.js 1.7.22</desc>
<defs>
</defs>
<g transform="translate(128 128) scale(0.72 0.72)" style="">
	<g style="stroke: none; stroke-width: 0; stroke-dasharray: none; stroke-linecap: butt; stroke-linejoin: miter; stroke-miterlimit: 10; fill: none; fill-rule: nonzero; opacity: 1;" transform="translate(-175.05 -175.05000000000004) scale(3.89 3.89)" >
	<path d="M 58.428 29.829 L 69.74 13.748 c 0.003 -0.004 0.003 -0.009 0.006 -0.013 c 0.11 -0.159 0.191 -0.337 0.252 -0.524 c 0.012 -0.036 0.024 -0.07 0.033 -0.107 c 0.043 -0.163 0.073 -0.331 0.073 -0.507 c 0 -0.017 -0.005 -0.033 -0.005 -0.05 c -0.001 -0.031 -0.007 -0.06 -0.009 -0.091 c -0.013 -0.178 -0.047 -0.349 -0.104 -0.511 c -0.009 -0.026 -0.014 -0.052 -0.024 -0.078 c -0.071 -0.181 -0.171 -0.346 -0.289 -0.497 c -0.012 -0.016 -0.016 -0.035 -0.029 -0.05 L 60.861 0.724 c -0.018 -0.022 -0.042 -0.038 -0.061 -0.059 c -0.053 -0.059 -0.111 -0.113 -0.172 -0.166 c -0.048 -0.042 -0.096 -0.083 -0.148 -0.12 c -0.021 -0.015 -0.038 -0.034 -0.06 -0.049 c -0.044 -0.029 -0.092 -0.047 -0.138 -0.072 c -0.054 -0.03 -0.106 -0.061 -0.163 -0.085 c -0.082 -0.036 -0.166 -0.062 -0.25 -0.086 c -0.047 -0.014 -0.093 -0.031 -0.142 -0.041 c -0.11 -0.023 -0.22 -0.033 -0.33 -0.037 C 59.371 0.007 59.347 0 59.321 0 H 45.027 c 0 0 -0.001 0 -0.001 0 H 30.705 c -0.002 0 -0.003 0 -0.005 0 h -0.02 c -0.022 0 -0.043 0.007 -0.066 0.007 c -0.114 0.004 -0.227 0.014 -0.34 0.038 c -0.048 0.01 -0.093 0.027 -0.14 0.04 c -0.086 0.024 -0.17 0.05 -0.253 0.087 c -0.055 0.024 -0.106 0.054 -0.158 0.083 c -0.047 0.026 -0.097 0.044 -0.142 0.074 c -0.023 0.015 -0.04 0.035 -0.062 0.051 c -0.05 0.036 -0.095 0.075 -0.142 0.115 c -0.063 0.055 -0.123 0.111 -0.178 0.172 c -0.018 0.021 -0.041 0.036 -0.059 0.057 l -8.783 10.597 c -0.013 0.015 -0.017 0.034 -0.029 0.05 c -0.118 0.151 -0.217 0.315 -0.289 0.496 c -0.01 0.026 -0.015 0.053 -0.025 0.079 c -0.056 0.162 -0.091 0.332 -0.103 0.51 c -0.002 0.031 -0.008 0.06 -0.009 0.091 c 0 0.017 -0.005 0.033 -0.005 0.05 c 0 0.177 0.03 0.345 0.073 0.508 c 0.009 0.036 0.021 0.07 0.033 0.105 c 0.061 0.188 0.142 0.366 0.252 0.525 c 0.003 0.004 0.003 0.009 0.006 0.013 l 11.312 16.08 c -10.955 5.161 -18.155 16.343 -18.155 28.589 C 13.417 75.832 27.585 90 45 90 s 31.583 -14.168 31.583 -31.583 C 76.583 46.171 69.383 34.99 58.428 29.829 z M 52.215 39.129 c 7.998 2.993 13.372 10.745 13.372 19.288 c 0 11.352 -9.235 20.587 -20.587 20.587 s -20.587 -9.235 -20.587 -20.587 c 0 -8.544 5.374 -16.295 13.373 -19.288 c 0.087 -0.033 0.179 -0.056 0.267 -0.088 l 5.311 7.55 c 0.012 0.017 0.029 0.03 0.042 0.047 c 0.041 0.055 0.081 0.111 0.128 0.161 c 0.025 0.027 0.054 0.05 0.081 0.076 c 0.009 0.009 0.019 0.018 0.029 0.027 c 0.024 0.022 0.046 0.046 0.071 0.067 c 0.028 0.024 0.057 0.047 0.086 0.069 c 0.038 0.029 0.079 0.053 0.119 0.079 c 0.047 0.03 0.093 0.062 0.143 0.089 c 0.019 0.01 0.038 0.017 0.057 0.026 c 0.041 0.02 0.082 0.038 0.125 0.056 c 0.073 0.03 0.148 0.054 0.224 0.076 c 0.024 0.007 0.046 0.016 0.07 0.022 c 0.008 0.002 0.015 0.006 0.024 0.008 c 0.012 0.003 0.024 0.002 0.037 0.004 c 0.13 0.027 0.263 0.045 0.398 0.045 c 0.001 0 0.001 0 0.002 0 s 0.001 0 0.002 0 c 0.136 0 0.268 -0.018 0.398 -0.045 c 0.012 -0.003 0.024 -0.001 0.037 -0.004 c 0.008 -0.002 0.015 -0.006 0.024 -0.008 c 0.024 -0.006 0.047 -0.016 0.071 -0.022 c 0.076 -0.021 0.151 -0.046 0.224 -0.075 c 0.043 -0.017 0.084 -0.035 0.125 -0.055 c 0.019 -0.009 0.039 -0.016 0.058 -0.026 c 0.049 -0.026 0.095 -0.058 0.142 -0.088 c 0.04 -0.026 0.081 -0.05 0.119 -0.079 c 0.029 -0.022 0.058 -0.045 0.086 -0.069 c 0.026 -0.021 0.048 -0.045 0.073 -0.068 c 0.009 -0.009 0.019 -0.017 0.028 -0.026 c 0.027 -0.026 0.056 -0.049 0.081 -0.076 c 0.047 -0.05 0.087 -0.106 0.128 -0.161 c 0.013 -0.017 0.029 -0.029 0.042 -0.046 l 5.311 -7.549 C 52.035 39.073 52.127 39.096 52.215 39.129 z M 30.494 5.358 l 3.446 5.239 h -7.788 L 30.494 5.358 z M 63.849 10.597 h -7.788 l 3.446 -5.239 L 63.849 10.597 z M 49.148 36.068 l 4.806 -21.471 h 10.298 L 49.148 36.068 z M 49.854 14.597 L 45 36.283 l -4.854 -21.686 H 49.854 z M 41.47 10.597 L 45 5.509 l 3.53 5.088 H 41.47 z M 52.308 9.024 L 48.822 4 h 6.79 L 52.308 9.024 z M 37.693 9.024 L 34.388 4 h 6.79 L 37.693 9.024 z M 36.047 14.597 l 4.806 21.471 L 25.748 14.597 H 36.047 z M 45 86 c -15.209 0 -27.583 -12.374 -27.583 -27.583 c 0 -10.932 6.577 -20.883 16.504 -25.25 l 1.765 2.509 c -9.161 3.759 -15.273 12.792 -15.273 22.741 c 0 13.558 11.03 24.587 24.587 24.587 c 13.558 0 24.587 -11.029 24.587 -24.587 c 0 -9.949 -6.112 -18.983 -15.273 -22.741 l 1.765 -2.508 c 9.927 4.367 16.504 14.317 16.504 25.249 C 72.583 73.626 60.209 86 45 86 z" style="stroke: none; stroke-width: 1; stroke-dasharray: none; stroke-linecap: butt; stroke-linejoin: miter; stroke-miterlimit: 10; fill: rgb(0,0,0); fill-rule: nonzero; opacity: 1;" transform=" matrix(1 0 0 1 0 0) " stroke-linecap="round" />
</g>
</g>
</svg>