<?xml version="1.0" encoding="utf-8"?>
<!-- Generator: Adobe Illustrator 26.0.1, SVG Export Plug-In . SVG Version: 6.00 Build 0)  -->
<svg version="1.1" id="Layer_1" xmlns="http://www.w3.org/2000/svg" xmlns:xlink="http://www.w3.org/1999/xlink" x="0px" y="0px"
	 viewBox="0 0 1920 1080" style="enable-background:new 0 0 1920 1080;" xml:space="preserve">
<symbol  id="New_Symbol" viewBox="-448.04 -189.05 896.08 378.09">
	<path d="M-293.05,22.51c9.17,15.03,13.75,31.5,13.75,49.43c0,19.31-6.58,35.36-19.73,48.13c-13.16,12.77-30.84,19.16-53.05,19.16
		c-18.03,0-34.4-4.11-49.12-12.34c-14.73-8.23-26.21-19.29-34.46-33.19c-8.25-13.9-12.37-28.3-12.37-43.2
		c0-8.92,2.75-17.63,8.24-26.11c4.04-6.06,8.2-9.09,12.48-9.09c1.94,0,3.66,0.8,5.15,2.4c1.49,1.6,2.24,3.44,2.24,5.52
		c0,1.64-0.38,3.03-1.15,4.16c-0.77,1.12-2.43,2.47-5.01,4.03c-9.01,5.2-13.52,13.34-13.52,24.42c0,11.35,3.68,23.02,11.03,35.01
		c7.35,12,17.34,21.63,29.97,28.91c12.62,7.27,26.05,10.91,40.28,10.91c16.88,0,30.55-5.87,41-17.6
		c10.45-11.74,15.68-27.26,15.68-46.57c0-14.73-3.08-28.19-9.22-40.4c-6.15-12.21-14.45-21.5-24.9-27.87s-22.71-9.55-36.78-9.55
		c-5.31,0-11.42,0.73-18.33,2.21c7.16,13.34,13.59,33.09,19.3,59.24l7.96,36.25c2.65,12.21,5.71,23.13,9.17,32.74
		c-11.91-3.04-22.24-4.94-31.01-5.72l-1.21-5.59c1.69,0.26,2.81,0.39,3.38,0.39c1.45,0,2.57-0.41,3.38-1.23
		c0.8-0.82,1.21-1.93,1.21-3.31c0-1.47-0.24-3.25-0.72-5.33l-9.65-42.35l-8.32-33.91c-4.02-13.34-7.2-22-9.53-25.98
		c-1.29-2.25-2.83-3.85-4.64-4.81c-1.81-0.95-6.41-1.65-13.81-2.08l-2.78-6.37c7.4,0.26,12.9,0.39,16.52,0.39
		c7.8,0,16.04-0.35,24.72-1.04c10.29-0.86,17.53-1.3,21.71-1.3c12.94,0,25.91,3.18,38.89,9.55S-302.22,7.48-293.05,22.51z"/>
	<path d="M-223.18,124.03c3.06,0,5.81,1.45,8.27,4.35c2.45,2.9,3.68,6.26,3.68,10.07c0,2.77-0.81,5.04-2.41,6.82
		c-1.61,1.77-3.66,2.66-6.16,2.66c-3.22,0-6-1.36-8.33-4.09c-2.33-2.73-3.5-6.04-3.5-9.94c0-2.95,0.8-5.33,2.41-7.15
		C-227.6,124.94-225.59,124.03-223.18,124.03z"/>
	<path d="M-253.53,75.19c2.05,1.38,3.88,2.08,5.49,2.08c1.45,0,2.17-0.87,2.17-2.6c0-1.56-0.28-3.33-0.84-5.33
		c-12.07-42.09-18.1-68.55-18.1-79.38c0-3.38,0.82-6.02,2.47-7.92c1.65-1.9,3.88-2.86,6.7-2.86c3.22,0,7.36,1.56,12.43,4.68
		c5.07,3.12,13.11,10.26,24.14,21.44l-4.71,4.94C-234.4-0.51-241-5.88-243.58-5.88c-0.65,0-1.25,0.41-1.81,1.23
		c-0.56,0.82-0.84,1.84-0.84,3.05c0,6.32,4.25,24.86,12.76,55.6c5.22,18.79,7.82,29.45,7.82,31.96c0,2.08-0.68,3.72-2.05,4.94
		c-1.37,1.21-3.33,1.82-5.91,1.82c-4.66,0-10.31-2.01-16.94-6.04s-13.96-10.81-22-20.33l5.31-4.42
		C-260.15,69.38-255.59,73.8-253.53,75.19z"/>
	<path d="M-209.54-15.5c2.49-3.55,6.07-5.33,10.74-5.33c4.91,0,10.3,1.99,16.17,5.98c9.57,6.41,17.82,14.07,24.74,23l-4.83-17.67
		c-0.65-2.25-0.97-4.03-0.97-5.33c0-1.99,0.52-3.51,1.57-4.55c1.04-1.04,2.61-1.56,4.71-1.56c2.9,0,5.87,0.61,8.93,1.82
		c4.67,1.82,9.57,4.63,14.73,8.44c2.57,1.9,8.45,7.36,17.62,16.37l-3.86,5.07c-4.59-4.76-9.37-8.75-14.36-11.95
		c-2.82-1.82-4.87-2.73-6.16-2.73c-2.01,0-3.02,1.34-3.02,4.03c0,2.68,0.88,8.66,2.66,17.93c3.22,17.06,6.64,32.13,10.26,45.21
		l9.05,32.87l-7.96-1.82l-2.9-5.07c-2.66,0.34-5.27,0.52-7.85,0.52c-10.22,0-18.59-1.65-25.11-4.94
		c-8.45-4.33-16.5-11.09-24.14-20.27c-7.65-9.18-13.74-19.4-18.29-30.66c-4.55-11.26-6.82-21.48-6.82-30.66
		C-214.61-4.5-212.92-10.73-209.54-15.5z M-189.44,46.28c4.63,11.13,9.64,18.84,15.03,23.12c5.39,4.29,11.71,6.43,18.95,6.43
		c2.98,0,6.64-0.48,10.98-1.43l-10.02-40.53c-2.98-12.13-7.65-21.42-14-27.87c-6.36-6.45-12.31-9.68-17.86-9.68
		c-2.98,0-5.39,1.3-7.24,3.9c-1.85,2.6-2.78,6.84-2.78,12.73C-196.38,24.04-194.07,35.15-189.44,46.28z"/>
	<path d="M-1.34,73.11c3.38,2.16,6.07,3.25,8.09,3.25c2.41,0,3.62-1.47,3.62-4.42c0-3.12-2.05-12-6.16-26.63
		c-5.47-19.49-8.77-32.02-9.9-37.61C-6.81,2.11-7.37-2.76-7.37-6.92c0-4.5,0.92-8.03,2.78-10.59c1.85-2.55,3.98-3.83,6.4-3.83
		c3.22,0,7.16,1.47,11.83,4.42c2.41,1.56,6.84,5.46,13.28,11.69c3.56,3.51,6.25,6.1,8.08,7.78c7.89-17.11,21.95-29.76,40.03-33.59
		c34.6-7.32,70.95,20.4,81.02,61.81c2.58,10.61,3.17,21.27,1.98,31.37c4.2,4.89,8.69,9.06,13.48,12.5c2.41,1.83,4.26,2.75,5.55,2.75
		c1.61,0,2.41-1.17,2.41-3.51c0-0.87-0.2-2.3-0.6-4.29l-10.74-49.44c-2.49-11.88-5.43-24.33-8.81-37.34h17.98l9.78,45.41
		c2.17,10.23,4.87,17.69,8.09,22.38c5.07,7.29,11.38,13.62,18.95,18.99c5.07,3.64,9.21,5.46,12.43,5.46c2.98,0,4.47-1.34,4.47-4.03
		c0-1.82-1.37-8.18-4.1-19.1c-8.93-30.66-13.4-49.85-13.4-57.55c0-5.37,0.84-9.25,2.54-11.63c1.69-2.38,4.06-3.57,7.12-3.57
		c3.3,0,7.48,1.72,12.55,5.17c7.96,5.34,15.65,12.41,23.05,21.2l-3.02,4.68c-3.54-2.95-7.08-6.15-10.62-9.61
		c-4.99-4.85-8.65-7.28-10.98-7.28c-0.89,0-1.57,0.44-2.05,1.33c-0.48,0.89-0.72,2.22-0.72,3.99c0,5.8,2.56,17.54,7.7,35.21
		c5.45,18.88,8.82,31.14,10.1,36.77c0.72,3.38,1.08,6.41,1.08,9.09c0,4.07-0.88,7.19-2.65,9.35c-1.77,2.16-4.22,3.25-7.35,3.25
		c-4.26,0-9.68-2.21-16.27-6.63c-12.37-8.5-22.65-17.64-30.85-27.44l5.44,26.15c0.4,1.99,0.6,3.38,0.6,4.16
		c0,1.04-0.49,1.95-1.45,2.73c-0.97,0.78-2.29,1.17-3.98,1.17c-4.35,0-9.58-1.74-15.71-5.22c-5.43-3.09-12.51-8.99-21.23-17.69
		c-3.09,14.63-10.07,27.63-20.31,36.83l31.78,33.48c0.01,0.01,0.01,0.02,0.02,0.03c0.31,0.33,0.57,0.72,0.8,1.14
		c0.04,0.08,0.09,0.16,0.13,0.24c0.18,0.37,0.34,0.76,0.44,1.17c0.01,0.04,0.01,0.08,0.02,0.12c0.02,0.07,0.02,0.15,0.03,0.22
		c0.08,0.43,0.11,0.85,0.09,1.26c0,0.07,0,0.13,0,0.2c-0.04,0.46-0.14,0.89-0.29,1.3c-0.01,0.04-0.01,0.09-0.03,0.13l-11.32,28.89
		c-0.02,0.06-0.06,0.11-0.09,0.17c-0.07,0.16-0.16,0.32-0.25,0.47c-0.07,0.12-0.14,0.24-0.22,0.35c-0.03,0.04-0.06,0.1-0.09,0.14
		c-0.07,0.09-0.16,0.15-0.23,0.23c-0.09,0.09-0.18,0.19-0.27,0.27c-0.14,0.12-0.29,0.22-0.45,0.31c-0.09,0.05-0.17,0.11-0.26,0.16
		c-0.21,0.1-0.42,0.17-0.63,0.23c-0.05,0.02-0.09,0.04-0.15,0.05l-28.4,6.01l0,0l-28.46,6.02c0,0-0.01,0-0.01,0l-0.04,0.01
		c-0.04,0.01-0.09,0-0.14,0.01c-0.23,0.04-0.46,0.06-0.7,0.05c-0.1,0-0.2-0.03-0.3-0.04c-0.18-0.02-0.37-0.05-0.55-0.1
		c-0.12-0.03-0.24-0.08-0.36-0.13c-0.11-0.04-0.22-0.06-0.32-0.12c-0.05-0.03-0.1-0.07-0.15-0.1c-0.12-0.06-0.23-0.14-0.35-0.21
		c-0.16-0.1-0.31-0.21-0.45-0.33c-0.05-0.04-0.1-0.07-0.15-0.11l-23.58-21.5c-0.03-0.03-0.05-0.07-0.09-0.11
		c-0.32-0.31-0.61-0.66-0.86-1.06c-0.03-0.06-0.06-0.12-0.1-0.18c-0.21-0.36-0.37-0.75-0.5-1.17c-0.02-0.07-0.05-0.14-0.07-0.21
		c-0.01-0.04-0.03-0.08-0.04-0.12c-0.1-0.42-0.14-0.83-0.15-1.24c0-0.09,0-0.18,0-0.26c0.01-0.47,0.07-0.93,0.2-1.35
		c0-0.01,0-0.02,0-0.03l13.17-42.99c-24.75-7.66-45.53-31.22-52.61-60.34c-4.23-17.4-3.15-34.48,2.08-48.99l-0.16,0.19
		c-4.99-5.37-9.86-9.87-14.6-13.51c-1.45-1.04-2.94-1.56-4.47-1.56c-2.25,0-3.38,1.47-3.38,4.42c0,4.33,3.18,17.71,9.54,40.14
		c5.07,18.1,8.01,28.93,8.81,32.48c0.8,3.55,1.21,6.63,1.21,9.22c0,4.33-0.93,7.54-2.78,9.61c-1.85,2.08-4.47,3.12-7.85,3.12
		c-3.79,0-9.06-2.14-15.82-6.43s-14.74-11.58-23.92-21.89c2.41,8.75,3.61,14.94,3.61,18.58c0,3.38-0.68,5.85-2.05,7.41
		c-1.37,1.56-3.37,2.34-6.02,2.34c-10.19,0-24.92-10.57-44.18-31.7c0.72,4.24,2.01,10,3.87,17.28c1.29,4.94,1.93,8.27,1.93,10
		c0,1.38-0.42,2.47-1.27,3.25c-0.85,0.78-2.12,1.17-3.82,1.17c-4.13,0-9.78-2.04-16.96-6.11c-7.18-4.07-14.75-10.39-22.71-18.97
		l3.62-5.2C-95.12,72.07-88.72,77-85.58,77c1.45,0,2.17-1,2.17-2.99c0-1.56-2.01-11.3-6.03-29.23l-10.54-47.9
		c-6.95-1.21-13.66-3.89-20.11-8.04c-9.12-5.87-16.17-14.11-21.15-24.72c-3.22-7.02-7.19-20.83-11.93-41.44l-13.02-57.03
		c-4.98-21.83-7.47-36.2-7.47-43.13c0-3.55,0.8-6.35,2.41-8.38c1.61-2.03,3.66-3.05,6.16-3.05c5.55,0,12.61,3.14,21.18,9.42
		c8.57,6.28,15.99,13.23,22.27,20.85l-4.1,4.68c-6.68-7.02-13.37-12.78-20.05-17.28c-3.38-2.25-5.96-3.38-7.73-3.38
		c-1.85,0-2.78,1.38-2.78,4.16c0,1.21,2.98,15.46,8.93,42.74l12.04,54.43c4.25,19.57,7.31,32.67,9.2,39.31
		c1.88,6.64,3.99,10.99,6.31,13.06c1.68,1.47,4.17,2.2,7.46,2.2s6.85-0.35,10.7-1.04c4.41-0.87,7.82-1.3,10.22-1.3
		c3.69,0,6.49,0.89,8.42,2.68c1.92,1.79,2.89,4.08,2.89,6.87c0,2.53-0.98,4.69-2.95,6.48c-0.02,0.02-0.05,0.04-0.07,0.06l6.7,31.7
		c2.49,11.78,5.48,20.55,8.98,26.31c3.49,5.76,9.22,11.71,17.17,17.86c4.58,3.64,7.95,5.46,10.12,5.46c1.21,0,2.13-0.37,2.77-1.1
		c0.64-0.74,0.96-1.8,0.96-3.18c0-0.87-0.65-4.16-1.93-9.87l-17.98-79.38h17.14c2.66,13.51,6.68,30.96,12.07,52.36
		c2.41,9.79,5.23,16.93,8.45,21.44C-14.05,63.1-8.26,68.6-1.34,73.11z M114.45,95.45l21.97,49.03l20.46-4.33L114.45,95.45z
		 M158.4,149.83l-15.47,3.28l9.88,11.01L158.4,149.83z M145.85,168.98l-9.47-10.56l-4.02,13.41L145.85,168.98z M106.09,96.69
		l2.9,53.6l19.29-4.08L106.09,96.69z M127.96,156.28l-14.03,2.97l9.96,10.61L127.96,156.28z M117.17,175.05l-9.83-10.48l-3.66,13.34
		L117.17,175.05z M101.5,70.28c0.04,0.01,0.09,0.02,0.13,0.04c0.11,0.04,0.22,0.1,0.33,0.15c0.09,0.04,0.19,0.08,0.28,0.14
		c0.07,0.04,0.14,0.08,0.21,0.13c0.06,0.04,0.12,0.09,0.18,0.13c0.02,0.02,0.05,0.03,0.07,0.05c0.07,0.05,0.14,0.09,0.2,0.15
		c0.12,0.1,0.23,0.22,0.35,0.33c0.04,0.03,0.07,0.06,0.11,0.09L118.3,87.2c0.16-0.1,0.32-0.19,0.48-0.31
		c14.16-10.48,20.35-31.17,15.41-51.48C127.62,8.41,103.93-9.66,81.38-4.89c-22.56,4.77-35.56,30.62-29,57.61
		c4.94,20.31,20.1,36.48,37.73,40.24c0.19,0.04,0.39,0.06,0.58,0.1l6.19-20.19c0.01-0.05,0.04-0.08,0.06-0.13
		c0.05-0.15,0.1-0.3,0.16-0.44c0.03-0.07,0.08-0.14,0.12-0.21c0.01-0.03,0.03-0.05,0.04-0.08c0.03-0.06,0.06-0.13,0.1-0.19
		c0.04-0.07,0.09-0.14,0.13-0.2c0.06-0.08,0.13-0.16,0.19-0.24c0.08-0.09,0.15-0.19,0.23-0.27c0.03-0.03,0.07-0.06,0.1-0.09
		c0.07-0.06,0.14-0.12,0.22-0.19c0.13-0.1,0.26-0.19,0.4-0.27c0.04-0.03,0.08-0.06,0.13-0.08c0.01-0.01,0.03-0.02,0.04-0.03
		c0.02-0.01,0.05-0.01,0.07-0.03c0.24-0.12,0.5-0.22,0.76-0.27c0,0,0,0,0,0c0,0,0,0,0,0c0.27-0.06,0.54-0.07,0.82-0.06
		c0.03,0,0.05-0.01,0.08-0.01c0.02,0,0.03,0.01,0.05,0.01c0.05,0,0.1,0.02,0.15,0.02c0.16,0.02,0.33,0.05,0.49,0.08
		C101.32,70.22,101.41,70.25,101.5,70.28z M95.15,176.32l3.82-13.91l-15.47,3.28L95.15,176.32z M80.38,156.35l20.46-4.33
		l-2.87-53.07L80.38,156.35z M38.48,55.66c6.32,25.99,25.15,46.89,47.4,53.09l2.06-6.71c-20.38-5.08-37.75-23.99-43.5-47.65
		c-7.84-32.24,7.69-63.1,34.63-68.8C106-20.1,134.3,1.48,142.14,33.72c5.75,23.66-1.16,47.71-17.19,60.49l4.96,5.22
		c17.2-14.56,24.51-40.98,18.19-66.98c-8.8-36.16-40.54-60.38-70.76-53.98C47.11-15.13,29.68,19.5,38.48,55.66z"/>
	<path d="M321.77,7.52l-4.22-15.87c-0.89-3.38-1.33-5.8-1.33-7.28c0-1.47,0.6-2.79,1.81-3.96c1.21-1.17,2.78-1.75,4.71-1.75
		c4.18,0,9.9,2.21,17.14,6.63c5.23,3.2,13.24,9.7,24.02,19.49l-3.38,4.94c-7.89-6.58-13.2-10.7-15.93-12.34
		c-1.93-1.13-3.62-1.69-5.07-1.69c-2.33,0-3.5,1.65-3.5,4.94c0,3.03,1,9.18,3.01,18.45l17.07,78.48c4.57,20.96,7.5,33.39,8.78,37.29
		c1.93,6.14,3.97,10.13,6.11,11.99c2.14,1.86,4.62,2.79,7.44,2.79c2.02,0,5.77-0.43,11.25-1.3c5.48-0.87,9.24-1.3,11.25-1.3
		c3.06,0,5.48,0.84,7.26,2.53s2.66,3.88,2.66,6.56c0,2.77-0.97,5.07-2.9,6.89c-1.93,1.82-4.51,2.73-7.72,2.73
		c-6.12,0-12.69-1.53-19.73-4.6c-7.04-3.07-13.3-7.42-18.77-13.03c-5.47-5.62-9.94-12.3-13.4-20.04
		c-3.46-7.74-7.08-20.04-10.86-36.9c-3.54,0.6-6.2,0.91-7.97,0.91c-7.97,0-16.76-3.84-26.37-11.51
		c-9.62-7.67-18.35-19.51-26.19-35.51c-7.85-16-11.77-30.15-11.77-42.47c0-7.8,1.45-13.72,4.34-17.75c2.9-4.03,6.48-6.05,10.74-6.05
		c5.15,0,10.94,2,17.38,5.98C304.07-11.24,312.12-3.66,321.77,7.52z M305.84,1.4c-4.35-3.21-8.21-4.81-11.59-4.81
		c-2.82,0-5.33,1.41-7.54,4.23c-2.21,2.82-3.32,6.44-3.32,10.87c0,9.72,2.39,21.12,7.18,34.22c4.79,13.1,9.76,21.92,14.91,26.48
		c5.15,4.56,10.42,6.83,15.81,6.83c2.66,0,7.2-0.78,13.64-2.34l-5.55-26.15c-3.7-16.92-6.64-27.54-8.81-31.88
		C316.94,11.98,312.03,6.17,305.84,1.4z"/>
	<path d="M-171.8-47.96c-3.74,5.72-9.37,10.22-16.9,13.51c-7.52,3.29-17.16,4.94-28.91,4.94c-30.9,0-55.52-10.65-73.87-31.96
		c-14-16.2-21-34.12-21-53.79c0-10.74,2.22-19.62,6.67-26.63c4.45-7.01,9.05-10.52,13.82-10.52c1.78,0,3.31,0.65,4.61,1.95
		s1.94,2.9,1.94,4.81c0,2.94-1.97,5.98-5.91,9.09c-4.75,3.9-8.05,7.86-9.9,11.89c-1.85,4.03-2.78,8.77-2.78,14.23
		c0,11.08,3.56,22.32,10.67,33.71c7.11,11.39,17.22,20.74,30.32,28.06c13.1,7.32,26.49,10.98,40.15,10.98
		c11.98,0,20.88-2.56,26.71-7.67c5.83-5.11,8.74-12.04,8.74-20.79c0-8.83-2.4-17.06-7.18-24.68c-4.79-7.62-10.22-12.95-16.3-15.98
		c-6.08-3.03-11.69-4.42-16.84-4.16l-11.11,0.65l9.12,36.58c2.31,9.81,4.45,17.76,6.44,23.84c-8.3-2.26-18.28-4-29.96-5.21
		l-1.45-5.85c1.04,0.17,1.85,0.26,2.41,0.26c1.45,0,2.69-0.54,3.74-1.62c1.04-1.08,1.57-2.32,1.57-3.7c0-1.47-0.4-4.03-1.21-7.67
		l-18.2-77.82c-2.73-11.78-6.27-19.62-10.61-23.51c-3.06-2.77-8.76-4.89-17.13-6.37l-1.45-6.89c8.2,1.99,16.2,2.99,23.99,2.99
		c4.02,0,9.24-0.43,15.67-1.3c8.04-0.95,14.15-1.43,18.33-1.43c4.34,0,9.64,0.91,15.92,2.73l1.45,7.28
		c-6.75-2.43-13.05-3.64-18.92-3.64c-4.66,0-10.12,0.82-16.38,2.46c2.01,6.66,3.82,13.41,5.42,20.25l9.7,40.43
		c4.09-0.26,7.09-0.39,9.02-0.39c12.51,0,23.87,2.51,34.1,7.54c10.22,5.02,17.96,11.63,23.21,19.81c5.25,8.18,7.88,16.52,7.88,25.01
		C-166.19-59.87-168.06-53.67-171.8-47.96z"/>
	<path d="M-39.22-169.3c-2.82-1.82-4.87-2.73-6.16-2.73c-2.01,0-3.02,1.34-3.02,4.03c0,2.68,0.88,8.66,2.66,17.93
		c3.22,17.06,6.64,32.13,10.26,45.21l9.05,32.87l-7.96-1.82l-2.9-5.07c-2.66,0.34-5.27,0.52-7.85,0.52
		c-10.22,0-18.59-1.65-25.11-4.94c-8.45-4.33-16.5-11.09-24.14-20.27c-7.65-9.18-13.74-19.4-18.29-30.66
		c-4.55-11.26-6.82-21.48-6.82-30.66c0-7.71,1.69-13.95,5.07-18.71c2.49-3.55,6.07-5.33,10.74-5.33c4.91,0,10.3,1.99,16.17,5.98
		c9.57,6.41,17.82,14.07,24.74,23l-4.83-17.67c-0.65-2.25-0.97-4.03-0.97-5.33c0-1.99,0.52-3.51,1.57-4.55
		c1.04-1.04,2.61-1.56,4.71-1.56c2.9,0,5.87,0.61,8.93,1.82c4.67,1.82,9.57,4.63,14.73,8.45c2.57,1.9,8.45,7.36,17.62,16.37
		l-3.86,5.07C-29.44-162.11-34.23-166.1-39.22-169.3z M-59.38-134.22c-2.98-12.13-7.65-21.42-14-27.87
		c-6.36-6.45-12.31-9.68-17.86-9.68c-2.98,0-5.39,1.3-7.24,3.9c-1.85,2.6-2.78,6.84-2.78,12.73c0,11.08,2.31,22.19,6.94,33.32
		c4.63,11.13,9.64,18.84,15.03,23.12c5.39,4.29,11.71,6.43,18.95,6.43c2.98,0,6.64-0.48,10.98-1.43L-59.38-134.22z"/>
	<path d="M78.34-167.48c-4.99-4.85-8.65-7.28-10.98-7.28c-0.89,0-1.57,0.44-2.05,1.33c-0.48,0.89-0.72,2.22-0.72,4
		c0,5.8,2.56,17.54,7.7,35.21c5.45,18.88,8.82,31.14,10.1,36.77c0.72,3.38,1.08,6.41,1.08,9.09c0,4.07-0.88,7.19-2.65,9.35
		c-1.77,2.16-4.22,3.25-7.35,3.25c-4.26,0-9.68-2.21-16.27-6.63c-12.37-8.5-22.65-17.64-30.85-27.44l5.44,26.15
		c0.4,1.99,0.6,3.38,0.6,4.16c0,1.04-0.48,1.95-1.45,2.73c-0.97,0.78-2.3,1.17-3.98,1.17c-4.35,0-9.58-1.74-15.7-5.22
		C5.13-84.33-3.08-91.38-13.39-102l4.1-4.55c4.35,5.15,9.01,9.52,14,13.1c2.41,1.83,4.26,2.75,5.55,2.75c1.61,0,2.41-1.17,2.41-3.51
		c0-0.87-0.2-2.3-0.6-4.29L1.34-147.94c-2.5-11.88-5.43-24.33-8.81-37.34h17.98l9.78,45.41c2.17,10.23,4.87,17.69,8.09,22.38
		c5.07,7.29,11.39,13.62,18.95,18.99c5.07,3.64,9.21,5.46,12.43,5.46c2.98,0,4.47-1.34,4.47-4.03c0-1.82-1.37-8.18-4.1-19.1
		c-8.93-30.66-13.4-49.84-13.4-57.55c0-5.37,0.84-9.25,2.53-11.63c1.69-2.38,4.06-3.57,7.12-3.57c3.3,0,7.48,1.72,12.55,5.17
		c7.97,5.34,15.65,12.41,23.05,21.2l-3.02,4.68C85.42-160.81,81.88-164.02,78.34-167.48z"/>
	<path d="M192.04-167.48c-4.99-4.85-8.65-7.28-10.98-7.28c-0.89,0-1.57,0.44-2.05,1.33c-0.48,0.89-0.72,2.22-0.72,4
		c0,5.8,2.57,17.54,7.7,35.21c5.45,18.88,8.82,31.14,10.1,36.77c0.72,3.38,1.08,6.41,1.08,9.09c0,4.07-0.88,7.19-2.65,9.35
		c-1.77,2.16-4.22,3.25-7.35,3.25c-4.26,0-9.68-2.21-16.27-6.63c-12.37-8.5-22.65-17.64-30.85-27.44l5.44,26.15
		c0.4,1.99,0.6,3.38,0.6,4.16c0,1.04-0.49,1.95-1.45,2.73c-0.96,0.78-2.29,1.17-3.98,1.17c-4.35,0-9.58-1.74-15.7-5.22
		c-6.12-3.48-14.33-10.53-24.64-21.15l4.1-4.55c4.35,5.15,9.01,9.52,14,13.1c2.41,1.83,4.26,2.75,5.55,2.75
		c1.61,0,2.41-1.17,2.41-3.51c0-0.87-0.2-2.3-0.6-4.29l-10.74-49.44c-2.5-11.88-5.43-24.33-8.81-37.34h17.98l9.78,45.41
		c2.17,10.23,4.87,17.69,8.09,22.38c5.07,7.29,11.38,13.62,18.95,18.99c5.07,3.64,9.21,5.46,12.43,5.46c2.98,0,4.47-1.34,4.47-4.03
		c0-1.82-1.37-8.18-4.1-19.1c-8.93-30.66-13.4-49.84-13.4-57.55c0-5.37,0.85-9.25,2.54-11.63c1.69-2.38,4.06-3.57,7.12-3.57
		c3.3,0,7.48,1.72,12.55,5.17c7.97,5.34,15.65,12.41,23.05,21.2l-3.02,4.68C199.12-160.81,195.58-164.02,192.04-167.48z"/>
	<path d="M271.22-75.76c-16.34,0-30.38-10.44-42.12-31.31c-10.46-18.36-15.69-36.81-15.69-55.34c0-9.18,1.51-15.85,4.53-20.01
		c3.02-4.16,7.38-6.24,13.1-6.24c14.08,0,30.98,10.09,50.69,30.27l-3.98,5.72c-10.22-8.23-17.98-13.69-23.29-16.37
		c-3.94-1.99-7.56-2.99-10.86-2.99c-3.46,0-6.09,1.21-7.91,3.64c-1.81,2.42-2.72,6.71-2.72,12.86c0,4.24,0.36,8.7,1.09,13.38
		c15.29,7.45,25.26,12.6,29.93,15.46c9.33,5.89,15.81,11.56,19.43,17.02c3.62,5.46,5.43,11,5.43,16.63c0,5.37-1.51,9.59-4.53,12.67
		C281.29-77.3,276.93-75.76,271.22-75.76z M264.7-113.69c-6.52-7.19-16.25-13.9-29.21-20.14c1.53,9.87,4.14,19.57,7.85,29.1
		c2.57,6.5,5.75,11.35,9.54,14.55c2.82,2.42,5.71,3.64,8.69,3.64c2.9,0,5.25-1.1,7.06-3.31c1.81-2.21,2.72-5.18,2.72-8.9
		C271.34-103.69,269.12-108.67,264.7-113.69z"/>
	<path d="M382.32-83.94c1.57,1.64,2.35,3.64,2.35,5.98c0,2.25-0.81,4.22-2.42,5.91c-1.61,1.69-3.63,2.53-6.05,2.53
		c-3.31,0-7.42-2.35-12.34-7.04c-10.24-9.82-19.43-21.65-27.57-35.47l5.25,23.37c1.06,4.87,1.59,7.88,1.59,9.01
		c0,1.12-0.42,2.06-1.27,2.79c-0.84,0.73-1.99,1.1-3.44,1.1c-4.1,0-10-2.23-17.68-6.69c-7.68-4.46-15.38-11.15-23.1-20.07l3.74-4.55
		c6.52,7.02,11.02,11.41,13.52,13.19c2.49,1.77,4.35,2.66,5.55,2.66c1.77,0,2.66-1.04,2.66-3.12c0-0.95-0.36-3.33-1.09-7.15
		c-3.06-15.42-6.64-31.7-10.74-48.85l-8.45-34.95h17.98l5.45,25.2c3.63,16.89,6.33,27.65,8.1,32.28c1.77,4.63,4.89,10.07,9.36,16.31
		s8.56,10.87,12.3,13.91c3.74,3.03,8.58,5.63,14.53,7.8C376.83-87.54,380.75-85.59,382.32-83.94z"/>
	<path d="M442.18-80.5c-3.9,2.99-9.44,4.48-16.6,4.48c-9.82,0-17.9-3.18-24.26-9.54c-6.36-6.36-9.54-13.78-9.54-22.25
		c0-9.26,4.18-18.9,12.55-28.93c6.03-7.18,9.92-12.33,11.65-15.44c1.73-3.11,2.59-6.23,2.59-9.34c0-3.2-0.92-6.42-2.77-9.67
		c-1.84-3.24-4.41-5.67-7.7-7.27s-7.09-2.4-11.42-2.4c-3.77,0-6.73,1-8.9,2.99c-2.25,1.99-3.37,4.42-3.37,7.28
		c0,0.78,0.03,1.73,0.08,2.86c0.11,1.38,0.16,2.51,0.16,3.38c0,2.16-0.81,4.05-2.41,5.65c-1.61,1.6-3.54,2.4-5.79,2.4
		c-2.58,0-4.75-1-6.52-2.99c-1.77-1.99-2.66-4.5-2.66-7.54c0-6.15,2.33-11.33,7-15.53c4.67-4.2,11.79-6.3,21.36-6.3
		c11.42,0,20.76,3.44,28,10.31c7.24,6.88,10.86,14.9,10.86,24.07c0,9.17-4.47,18.86-13.4,29.07c-6.52,7.44-10.58,12.82-12.19,16.15
		c-1.61,3.33-2.41,6.77-2.41,10.32c0,4.06,1.27,7.46,3.8,10.18c2.53,2.72,5.45,4.09,8.75,4.09c3.86,0,7.76-2.82,11.71-8.44
		c2.09-2.95,3.7-4.79,4.83-5.52c1.13-0.74,2.45-1.1,3.98-1.1c2.33,0,4.32,0.87,5.97,2.6c1.65,1.73,2.47,3.77,2.47,6.11
		C448.04-86.93,446.09-83.49,442.18-80.5z"/>
</symbol>
<use xlink:href="#New_Symbol"  width="896.08" height="378.09" x="-448.04" y="-189.05" transform="matrix(1 0 0 -1 728.1768 459.135)" style="overflow:visible;"/>
</svg>
